<svg xmlns="http://www.w3.org/2000/svg" viewBox="0 0 100 100" fill="none">
  <defs>
    <linearGradient id="brainGrad" x1="0" y1="0" x2="0" y2="1">
      <stop offset="0%" stop-color="#ffffff"/>
      <stop offset="40%" stop-color="#e8ffe8"/>
      <stop offset="100%" stop-color="#b8e6b8"/>
    </linearGradient>
    <linearGradient id="brainShadow" x1="0" y1="0" x2="0" y2="1">
      <stop offset="0%" stop-color="#000000" stop-opacity="0.08"/>
      <stop offset="100%" stop-color="#000000" stop-opacity="0.2"/>
    </linearGradient>
    <radialGradient id="gloss" cx="0.35" cy="0.3" r="0.6">
      <stop offset="0%" stop-color="#ffffff" stop-opacity="0.5"/>
      <stop offset="100%" stop-color="#ffffff" stop-opacity="0"/>
    </radialGradient>
    <filter id="shadow">
      <feDropShadow dx="0" dy="2" stdDeviation="3" flood-color="#000000" flood-opacity="0.25"/>
    </filter>
  </defs>

  <!-- Main brain shape -->
  <path d="M50 12C37.85 12 28 21.85 28 34c0 5.08 1.32 9.86 3.64 14.02 1.3 2.38 2.64 4.72 2.64 7.58 0 .96.14 1.9.38 2.8.12.46.28.9.48 1.33.42.9.96 1.72 1.6 2.45.96 1.1 2.14 1.98 3.48 2.62.42.2.86.36 1.3.48.7.2 1.42.3 2.18.3 1.84 0 3.5-.44 4.98-1.2.88-.46 1.7-1.02 2.42-1.68.3.6.66 1.18 1.06 1.72.84 1.12 1.88 2.08 3.06 2.84.5.32 1.02.6 1.58.82.74.3 1.52.48 2.34.54.08.44.12.88.12 1.32 0 2.44-.68 4.72-1.86 6.64-.18.3-.38.58-.58.86-.26.36-.38.8-.26 1.24.1.36.3.68.58.9.14.12.3.2.46.26.16.06.34.1.52.1.52 0 1-.24 1.32-.64.12-.14.22-.3.32-.46 1.46-2.36 2.3-5.1 2.3-8.04 0-.46-.02-.92-.06-1.36 1.04-.1 2.04-.4 2.94-.86.9-.46 1.7-1.06 2.36-1.78.66-.72 1.2-1.54 1.58-2.44.28-.66.48-1.36.58-2.08.7.22 1.42.34 2.18.34 1.26 0 2.46-.26 3.56-.72 1.1-.46 2.1-1.12 2.92-1.94.82-.82 1.48-1.78 1.94-2.86.46-1.08.72-2.24.72-3.44 0-1.2-.26-2.36-.72-3.44-.2-.48-.44-.94-.7-1.38.52-.7.94-1.46 1.24-2.28.46-1.26.7-2.6.7-4 0-1.54-.3-3.02-.86-4.38-.56-1.36-1.36-2.6-2.36-3.64-.98-1.02-2.14-1.84-3.44-2.44-1.14-.52-2.36-.84-3.6-.96.28-.92.42-1.88.42-2.86 0-3.14-1.06-6.02-2.82-8.3-1.76-2.28-4.18-3.96-7-4.92-1.4-.48-2.9-.76-4.44-.8C55.24 12.24 52.66 12 50 12z" fill="url(#brainGrad)" stroke="url(#brainShadow)" stroke-width="0.5" filter="url(#shadow)"/>
  
  <!-- Hemisphere divide -->
  <path d="M50 12c-2 10-2 20 0 30s2 20 0 30" stroke="#a8d8a8" stroke-width="0.8" fill="none" opacity="0.4"/>

  <!-- Left hemisphere detail -->
  <path d="M40 22c-2 4-3 10-2 16" stroke="#90c890" stroke-width="0.6" fill="none" opacity="0.3"/>
  <path d="M36 30c-1 3-1 7 0 10" stroke="#90c890" stroke-width="0.6" fill="none" opacity="0.3"/>

  <!-- Right hemisphere detail -->
  <path d="M60 22c2 4 3 10 2 16" stroke="#90c890" stroke-width="0.6" fill="none" opacity="0.3"/>
  <path d="M64 30c1 3 1 7 0 10" stroke="#90c890" stroke-width="0.6" fill="none" opacity="0.3"/>

  <!-- Bottom detail -->
  <path d="M42 68c2 3 5 5 8 5s6-2 8-5" stroke="#90c890" stroke-width="0.6" fill="none" opacity="0.3"/>

  <!-- Gloss overlay -->
  <path d="M50 12C37.85 12 28 21.85 28 34c0 5.08 1.32 9.86 3.64 14.02 1.3 2.38 2.64 4.72 2.64 7.58 0 .96.14 1.9.38 2.8.12.46.28.9.48 1.33.42.9.96 1.72 1.6 2.45.96 1.1 2.14 1.98 3.48 2.62.42.2.86.36 1.3.48.7.2 1.42.3 2.18.3 1.84 0 3.5-.44 4.98-1.2.88-.46 1.7-1.02 2.42-1.68.3.6.66 1.18 1.06 1.72.84 1.12 1.88 2.08 3.06 2.84.5.32 1.02.6 1.58.82.74.3 1.52.48 2.34.54.08.44.12.88.12 1.32 0 2.44-.68 4.72-1.86 6.64-.18.3-.38.58-.58.86-.26.36-.38.8-.26 1.24.1.36.3.68.58.9.14.12.3.2.46.26.16.06.34.1.52.1.52 0 1-.24 1.32-.64.12-.14.22-.3.32-.46 1.46-2.36 2.3-5.1 2.3-8.04 0-.46-.02-.92-.06-1.36 1.04-.1 2.04-.4 2.94-.86.9-.46 1.7-1.06 2.36-1.78.66-.72 1.2-1.54 1.58-2.44.28-.66.48-1.36.58-2.08.7.22 1.42.34 2.18.34 1.26 0 2.46-.26 3.56-.72 1.1-.46 2.1-1.12 2.92-1.94.82-.82 1.48-1.78 1.94-2.86.46-1.08.72-2.24.72-3.44 0-1.2-.26-2.36-.72-3.44-.2-.48-.44-.94-.7-1.38.52-.7.94-1.46 1.24-2.28.46-1.26.7-2.6.7-4 0-1.54-.3-3.02-.86-4.38-.56-1.36-1.36-2.6-2.36-3.64-.98-1.02-2.14-1.84-3.44-2.44-1.14-.52-2.36-.84-3.6-.96.28-.92.42-1.88.42-2.86 0-3.14-1.06-6.02-2.82-8.3-1.76-2.28-4.18-3.96-7-4.92-1.4-.48-2.9-.76-4.44-.8C55.24 12.24 52.66 12 50 12z" fill="url(#gloss)"/>

  <!-- Brain stem -->
  <path d="M48 70c-4 2-7 5-8 10h20c-1-5-4-8-8-10" fill="url(#brainGrad)" stroke="url(#brainShadow)" stroke-width="0.5" opacity="0.7"/>
</svg>
